<?xml version="1.0" encoding="utf-8"?>
<svg viewBox="0 0 122.398 123.647" xmlns="http://www.w3.org/2000/svg">
  <clipPath id="cp0">
    <path d="M 0 -626.976 L 750 -626.976 L 750 123.024 L 0 123.024 Z"/>
  </clipPath>
  <path d="M 87.891 65.028 C 91.046 64.858 94.201 64.757 97.356 64.527 L 97.356 62.104 C 94.201 61.873 67.32 61.09 61.76 61.054 C 61.749 55.502 61.309 34.92 61.309 34.92 C 61.147 31.765 61.057 28.61 60.833 25.455 L 58.158 25.455 C 57.934 28.61 57.844 31.765 57.682 34.92 L 57.419 44.385 C 57.347 46.992 55.234 47.414 54.17 45.03 L 50.305 36.387 C 48.945 33.539 47.654 30.654 46.241 27.824 L 43.774 28.851 C 44.773 31.848 45.898 34.801 46.954 37.776 L 50.333 46.624 C 51.264 49.058 52.23 51.478 53.203 53.901 C 51.344 52.071 49.469 50.257 47.578 48.46 L 40.699 41.955 C 38.355 39.838 36.058 37.671 33.667 35.598 L 31.782 37.487 C 33.851 39.878 36.018 42.174 38.135 44.518 L 44.64 51.398 C 46.435 53.291 48.256 55.159 50.081 57.023 C 47.658 56.049 45.238 55.083 42.801 54.153 L 33.956 50.775 C 30.981 49.718 28.028 48.593 25.028 47.591 L 24.004 50.06 C 26.834 51.474 29.716 52.765 32.568 54.124 L 41.211 57.989 C 43.591 59.053 45.988 60.081 48.386 61.105 C 45.779 61.134 43.172 61.166 40.562 61.235 L 31.1 61.502 C 27.945 61.664 24.79 61.754 21.635 61.978 L 21.635 64.653 C 24.79 64.877 27.945 64.966 31.1 65.129 L 40.565 65.392 C 46.125 65.544 51.682 65.569 57.238 65.58 C 57.274 71.132 57.318 76.689 57.487 82.246 L 57.783 91.711 C 57.953 94.866 58.053 98.021 58.284 101.175 L 60.707 101.175 C 60.938 98.021 61.039 94.866 61.212 91.711 L 61.504 82.246 C 61.587 79.574 61.63 76.902 61.67 74.23 C 62.723 76.685 63.787 79.137 64.886 81.575 L 68.781 90.204 C 70.143 93.052 71.441 95.929 72.866 98.76 L 75.101 97.826 C 74.11 94.826 72.999 91.873 71.946 88.891 L 68.593 80.039 C 67.648 77.537 66.667 75.052 65.68 72.568 C 67.594 74.432 69.513 76.289 71.463 78.121 L 78.361 84.607 C 80.712 86.716 83.013 88.877 85.41 90.946 L 87.126 89.23 C 85.057 86.836 82.897 84.532 80.787 82.18 L 74.301 75.279 C 72.467 73.337 70.618 71.41 68.751 69.499 C 71.232 70.491 73.717 71.467 76.216 72.417 L 85.075 75.766 C 88.053 76.819 91.006 77.929 94.01 78.924 L 94.94 76.682 C 92.11 75.264 89.236 73.96 86.384 72.596 L 77.755 68.702 C 75.318 67.606 72.866 66.546 70.414 65.486 C 73.082 65.45 75.754 65.407 78.426 65.324 L 87.891 65.028 Z" fill="#173361" clip-path="url(#cp0)"/>
  <path d="M 61.298 5.947 C 30.66 5.947 5.734 30.87 5.734 61.512 C 5.734 92.154 30.66 117.076 61.298 117.076 C 91.937 117.076 116.863 92.151 116.863 61.512 C 116.863 30.874 91.937 5.947 61.298 5.947 M 61.298 122.81 C 27.498 122.81 0 95.313 0 61.512 C 0 27.712 27.498 0.214 61.298 0.214 C 95.099 0.214 122.596 27.712 122.596 61.512 C 122.596 95.313 95.099 122.81 61.298 122.81" fill="#173361" clip-path="url(#cp0)"/>
</svg>