<svg enable-background="new 0 0 64 64" height="64" viewBox="0 0 64 64" width="64" xmlns="http://www.w3.org/2000/svg"><path d="m12 32c0 1.8-1.1 3.2-2.4 3.2h-4.8c-1.3 0-2.4-1.4-2.4-3.2s1.1-3.2 2.4-3.2h4.8c1.3 0 2.4 1.4 2.4 3.2" fill="#ff671d"/><path d="m36 32c0 1.8-1.2 3.2-2.7 3.2h-13.8c-1.5 0-2.7-1.4-2.7-3.2s1.2-3.2 2.7-3.2h13.8c1.5 0 2.7 1.4 2.7 3.2" fill="#ff671d"/><g fill="#abc8e7"><path d="m18.4 17.6c0 1.8-1.1 3.2-2.4 3.2h-4.8c-1.3 0-2.4-1.4-2.4-3.2s1.1-3.2 2.4-3.2h4.8c1.3 0 2.4 1.4 2.4 3.2"/><path d="m42.4 17.6c0 1.8-1.2 3.2-2.7 3.2h-13.8c-1.5 0-2.7-1.4-2.7-3.2s1.2-3.2 2.7-3.2h13.8c1.5 0 2.7 1.4 2.7 3.2"/><path d="m18.4 46.4c0 1.8-1.1 3.2-2.4 3.2h-4.8c-1.3 0-2.4-1.4-2.4-3.2s1.1-3.2 2.4-3.2h4.8c1.3 0 2.4 1.4 2.4 3.2"/><path d="m42.4 46.4c0 1.8-1.2 3.2-2.7 3.2h-13.8c-1.5 0-2.7-1.4-2.7-3.2s1.2-3.2 2.7-3.2h13.8c1.5 0 2.7 1.4 2.7 3.2"/></g><path d="m44 2.4c0 1.3-1.2 2.4-2.6 2.4h-12.4c-1.5 0-2.6-1.1-2.6-2.4s1.2-2.4 2.6-2.4h12.3c1.5 0 2.7 1.1 2.7 2.4" fill="#4197cb"/><path d="m61.6 2.4c0 1.3-1.1 2.4-2.5 2.4h-6.2c-1.4 0-2.5-1.1-2.5-2.4s1.1-2.4 2.5-2.4h6.2c1.4 0 2.5 1.1 2.5 2.4" fill="#4197cb"/><path d="m44 61.6c0 1.3-1.2 2.4-2.6 2.4h-12.4c-1.5 0-2.6-1.1-2.6-2.4s1.2-2.4 2.6-2.4h12.3c1.5 0 2.7 1.1 2.7 2.4" fill="#4197cb"/><path d="m61.6 61.6c0 1.3-1.1 2.4-2.5 2.4h-6.2c-1.4 0-2.5-1.1-2.5-2.4s1.1-2.4 2.5-2.4h6.2c1.4 0 2.5 1.1 2.5 2.4" fill="#4197cb"/></svg>