<svg width="200" height="200" xmlns="http://www.w3.org/2000/svg">
 <style type="text/css">.st0{fill:#008ADC;}
	.st1{fill:#FFFFFF;}</style>

 <g>
  <title>Layer 1</title>
  <path class="st0" d="m100.05,199.6c54.2,0 98.2,-44.6 98.2,-99.6s-44,-99.6 -98.3,-99.6s-98.2,44.6 -98.2,99.6s44,99.6 98.3,99.6l0,0z" id="svg_1"/>
  <path class="st1" d="m96.35,143.7l-3,6.6l13.8,5.7l3,-6.6c4.2,-9.4 11.9,-18.3 22,-26.4c5.9,-4.7 12.2,-8.8 18.5,-12.4c2.2,-1.2 4.2,-2.3 6.1,-3.2c1.1,-0.5 1.8,-0.9 2.1,-1l-0.1,-13.1c-0.3,-0.1 -1.1,-0.5 -2.1,-0.9c-1.8,-0.8 -3.8,-1.9 -6,-3c-6.3,-3.4 -12.5,-7.4 -18.4,-12c-10.2,-8.1 -17.8,-17.1 -22,-26.8l-2.8,-6.6l-13.9,5.4l2.8,6.6c3.2,7.4 7.8,14.2 13.5,20.5l-68.7,0l0,14.3l80.4,0l4.3,0c5.6,4.1 8.7,5.9 14.5,9.1c-5.5,3.1 -8.4,4.9 -13.7,8.8l-5.1,0l-80.4,0l0,14.3l69.2,0c-5.9,6.5 -10.7,13.4 -14,20.7z" id="svg_2" stroke="null"/>
  <path class="st1" d="m470.6,360.3c-6.6,0 -11.8,-2.4 -15.7,-7.3c-3.9,-5 -5.9,-11 -5.9,-18c0,-6.9 2,-12.8 6,-17.7c3.9,-4.9 9.1,-7.3 15.6,-7.3c6.8,0 12.2,2.4 16.1,7.1c4,4.8 6,10.8 6,17.9c0,7.2 -2,13.2 -6,18.1c-3.8,4.9 -9.1,7.2 -16.1,7.2z" id="svg_7"/>
 </g>
</svg>