<svg xmlns="http://www.w3.org/2000/svg" xmlns:xlink="http://www.w3.org/1999/xlink" viewBox="0 0 65 65" fill="#fff" fill-rule="evenodd" stroke="#000" stroke-linecap="round" stroke-linejoin="round"><use xlink:href="#A" x=".5" y=".5"/><symbol id="A" overflow="visible"><path d="M32 0C14.327 0 0 14.326 0 32s14.328 32 32 32 32-14.327 32-32S49.672 0 32 0zm0 59.9c-5.028 0-9.105-3.36-9.105-7.5h18.2c0 4.142-4.077 7.5-9.105 7.5zm15.05-9.993h-30.1v-5.454h30.1v5.454zm-.108-8.26H17.047l-.297-.344c-3.08-3.74-3.804-5.7-4.508-7.68-.012-.066 3.734.766 6.4 1.363 0 0 1.367.316 3.364.68-1.918-2.25-3.057-5.107-3.057-8.03 0-6.415 4.92-12.02 3.145-16.55 1.728.14 3.575 3.646 3.7 9.126 1.837-2.538 2.605-7.172 2.605-10.014 0-2.942 1.94-6.36 3.878-6.477-1.73 2.85.448 5.3 2.382 11.35.726 2.276.633 6.106 1.193 8.535.186-5.045 1.053-12.405 4.254-14.946-1.412 3.2.2 7.205 1.318 9.13 1.8 3.106 2.873 5.46 2.873 9.9 0 2.984-1.102 5.793-2.96 8 2.113-.397 3.572-.754 3.572-.754l6.862-1.34c0-.001-.997 4.1-4.828 8.05z" stroke="none" fill="#da4e31" fill-rule="nonzero"/></symbol></svg>