<?xml version="1.0" encoding="utf-8"?>
<svg viewBox="0 0 255.8 255.7949" xmlns="http://www.w3.org/2000/svg">
  <defs>
    <style>.cls-1{fill:#333;}.cls-2{fill:#f8eed0;}.cls-3{fill:#fcb415;}.cls-4{fill:#fff;}</style>
  </defs>
  <circle class="cls-2" cx="127.8974" cy="127.8974" r="127.8812"/>
  <ellipse class="cls-3" cx="127.8974" cy="127.7241" rx="85.7348" ry="85.7456"/>
  <ellipse class="cls-4" cx="189.4119" cy="129.9938" rx="24.5465" ry="19.1446" transform="matrix(0.379965, -0.925001, 0.925001, 0.379965, -25.302299, 237.813995)"/>
  <ellipse class="cls-4" cx="128.1119" cy="207.4049" rx="24.581" ry="26.608"/>
  <ellipse class="cls-4" cx="112.1883" cy="129.9938" rx="19.1446" ry="24.5465" transform="matrix(0.925001, -0.379965, 0.379965, 0.925001, -63.479, 34.384102)"/>
  <path id="path14_fill" data-name="path14 fill" class="cls-1" d="M193.9632,228.2154a92.7166,92.7166,0,0,0,48.4818-72.3578l14.8472,17.0573a110.4812,110.4812,0,0,1-63.3036,74.7894,86.218,86.218,0,0,0,.435-9.1269C194.4236,235.0584,194.2666,231.5974,193.9632,228.2154Zm-73.4666,6.0665a93.1419,93.1419,0,0,0,60.7019-.4217,60.3588,60.3588,0,0,1-9.2325,20.7258,111.3814,111.3814,0,0,1-42.1608.2495A59.8247,59.8247,0,0,1,120.4966,234.2819Zm-13.48-5.7994A92.7119,92.7119,0,0,1,57.98,155.3283L43.5027,174.1775a110.4967,110.4967,0,0,0,63.5388,73.764,85.3475,85.3475,0,0,1-.4612-9.3641C106.58,235.1515,106.7293,231.78,107.0169,228.4825ZM224.6391,91.2172l10.51-15.0521a110.852,110.852,0,0,0-26.2755-23.0566l-17.75,10.1821A93.0691,93.0691,0,0,1,224.6391,91.2172ZM92.8191,52.3548a110.8129,110.8129,0,0,0-27.425,23.7311l11.85,13.2907a93.0447,93.0447,0,0,1,32.318-26.1879Z" transform="matrix(1, 0, 0, 1, -22.5, -17.993)"/>
  <path class="cls-1" d="M89.2588,145.7943a61.1533,61.1533,0,0,1,43.9395-58.6692,33.776,33.776,0,0,1,4.1784-8.24,68.171,68.171,0,0,0-25.1586,123.3887q1.1931-3.4962,2.6147-6.7432A61.06,61.06,0,0,1,89.2588,145.7943Z" transform="matrix(1, 0, 0, 1, -22.5, -17.993)"/>
  <path class="cls-1" d="M101.2992,125.3559l5.1732,1.3568a48.0422,48.0422,0,0,1,23.7187-24.4082c.1357-2.0747.3711-4.0864.6874-6.0271A53.3293,53.3293,0,0,0,101.2992,125.3559Z" transform="matrix(1, 0, 0, 1, -22.5, -17.993)"/>
  <path class="cls-1" d="M103.15,153.36H97.822A53.0992,53.0992,0,0,0,118.5,188.2191q1.3416-2.3425,2.8092-4.4847A47.84,47.84,0,0,1,103.15,153.36Z" transform="matrix(1, 0, 0, 1, -22.5, -17.993)"/>
  <path class="cls-1" d="M194.4205,126.8944l5.15-1.3506a53.2738,53.2738,0,0,0-34.7048-30.9724c.3981,1.8649.7179,3.806.9477,5.8118A48.0224,48.0224,0,0,1,194.4205,126.8944Z" transform="matrix(1, 0, 0, 1, -22.5, -17.993)"/>
  <polygon class="cls-1" points="181.076 121.105 175.542 115.369 157.276 118.305 154.476 126.705 162.876 132.305 178.276 126.705 181.076 121.105"/>
  <polygon class="cls-1" points="75.44 121.105 80.974 115.369 99.24 118.305 102.04 126.705 93.64 132.305 78.24 126.705 75.44 121.105"/>
  <path class="cls-1" d="M200.9942,161.9a53.0225,53.0225,0,0,0,1.9784-8.54h-5.3255a47.7363,47.7363,0,0,1-1.0349,4.8046Q198.9391,160.0252,200.9942,161.9Z" transform="matrix(1, 0, 0, 1, -22.5, -17.993)"/>
  <path class="cls-1" d="M184.1523,179.638a47.9158,47.9158,0,0,1-4.3231,3.8305q1.4777,2.1324,2.832,4.4724a53.2329,53.2329,0,0,0,6.5937-6.004C187.5942,181.2564,185.8878,180.4839,184.1523,179.638Z" transform="matrix(1, 0, 0, 1, -22.5, -17.993)"/>
  <path class="cls-1" d="M211.5365,145.7943a60.9332,60.9332,0,0,1-4.3114,22.54,33.5436,33.5436,0,0,1,4.6257,6.9416,68.1491,68.1491,0,0,0-54.15-97.2538,31.9366,31.9366,0,0,1,4.4775,7.7785A61.1509,61.1509,0,0,1,211.5365,145.7943Z" transform="matrix(1, 0, 0, 1, -22.5, -17.993)"/>
  <path class="cls-1" d="M197.5177,184.7177a61.47,61.47,0,0,1-11.155,10.5237q1.4319,3.24,2.6409,6.74A68.5362,68.5362,0,0,0,205.5374,185.84,31.3777,31.3777,0,0,1,197.5177,184.7177Z" transform="matrix(1, 0, 0, 1, -22.5, -17.993)"/>
  <path class="cls-1" d="M156.2448,137.4648l-.0166.017c-.0339-.0229-.0658-.0475-.0976-.072l-5.7332-59.861h-5.3408l-4.9081,60.2794.0236.0042c0,.1191-.018.2309-.0153.351a18.5344,18.5344,0,0,0,.2991,2.91,9.3124,9.3124,0,0,0,.8695,3.1072,9.9846,9.9846,0,0,0,4.5848,5.5314c.4485.3493.9117.6892,1.4073,1.0062.1011.0648.2056.1073.3074.17l-.0083.0218,59.51,32.7128,3.11-4.3446Z" transform="matrix(1, 0, 0, 1, -22.5, -17.993)"/>
  <path class="cls-1" d="M163.834,219.4073a10.0107,10.0107,0,0,1-9.6688-7.4362l22-8.4147-5.25-13.0694L150.3938,198.79,129.84,190.5057l-5.2389,13.0417L146.4,212.1365a10.0086,10.0086,0,0,1-9.6209,7.2708c-.31,0-.6154-.018-.9179-.0457l-4.43,6.2026a16.9624,16.9624,0,0,0,18.8757-5.8371,16.9448,16.9448,0,0,0,19.4406,5.6332l-4.348-6.0866A10.0435,10.0435,0,0,1,163.834,219.4073Z" transform="matrix(1, 0, 0, 1, -22.5, -17.993)"/>
  <path class="cls-1" d="M218.8758,94.1245l-7.1282,8.1319a75.1751,75.1751,0,0,1-20.6409,106.6819,104.467,104.467,0,0,1,2.24,10.9861,85.7481,85.7481,0,0,0,25.529-125.8Z" transform="matrix(1, 0, 0, 1, -22.5, -17.993)"/>
  <path class="cls-1" d="M75.2033,145.7064A74.8269,74.8269,0,0,1,89.01,102.3076l-7.13-8.1343A85.75,85.75,0,0,0,107.9344,220.204a104.6218,104.6218,0,0,1,2.2063-10.9763A75.1376,75.1376,0,0,1,75.2033,145.7064Z" transform="matrix(1, 0, 0, 1, -22.5, -17.993)"/>
  <path class="cls-1" d="M150.3973,59.9715a85.38,85.38,0,0,0-36.7912,8.2835l5.2459,9.1962a75.1778,75.1778,0,0,1,63.0263-.0294l5.2459-9.1963A85.3867,85.3867,0,0,0,150.3973,59.9715Z" transform="matrix(1, 0, 0, 1, -22.5, -17.993)"/>
</svg>